<?xml version="1.0" encoding="UTF-8" standalone="no"?>
<!DOCTYPE svg PUBLIC "-//W3C//DTD SVG 1.1//EN" "http://www.w3.org/Graphics/SVG/1.1/DTD/svg11.dtd">
<svg width="100%" height="100%" viewBox="0 0 1296 432" version="1.1" xmlns="http://www.w3.org/2000/svg" xmlns:xlink="http://www.w3.org/1999/xlink" xml:space="preserve" xmlns:serif="http://www.serif.com/" style="fill-rule:evenodd;clip-rule:evenodd;stroke-linejoin:round;stroke-miterlimit:2;">
    <g transform="matrix(1.16168,0,0,1.16168,88.9229,-60.4711)">
        <path d="M81.274,291.333C78.05,291.333 75.309,290.259 73.052,288.11C70.795,285.906 69.667,283.289 69.667,280.259C69.667,277.173 70.795,274.529 73.052,272.325C75.309,270.121 78.05,269.019 81.274,269.019C84.552,269.019 87.319,270.121 89.576,272.325C91.887,274.529 93.042,277.173 93.042,280.259C93.042,283.289 91.887,285.906 89.576,288.11C87.319,290.259 84.552,291.333 81.274,291.333ZM264.317,289.515L199.429,289.515L199.429,171L261.738,171L261.738,187.695L218.614,187.695L218.614,221.249L258.353,221.249L258.353,237.861L218.614,237.861L218.614,272.903L264.317,272.903L264.317,289.515ZM131.668,289.515L95.406,171L115.909,171L131.427,228.167L140.995,262.097L141.638,262.097L151.287,228.167L166.644,171L187.227,171L151.206,289.515L131.668,289.515ZM296.312,244.65L296.312,289.515L277.096,289.515L277.096,171L313.84,171C320.487,171 326.544,172.394 332.011,175.181C337.479,177.915 341.821,181.908 345.037,187.161C348.307,192.361 349.941,198.659 349.941,206.056C349.941,213.239 348.28,219.751 344.956,225.594C341.633,231.383 336.943,236.02 330.886,239.504C330.323,239.823 329.751,240.127 329.169,240.416L356.535,289.515L334.745,289.515L310.609,244.638C310.215,244.646 309.818,244.65 309.418,244.65L296.312,244.65ZM296.312,188.769L296.312,228.087L311.589,228.087C315.287,228.087 318.584,227.283 321.479,225.674C324.373,224.013 326.651,221.681 328.313,218.679C329.975,215.678 330.805,212.167 330.805,208.146C330.805,202.089 328.929,197.346 325.177,193.915C321.425,190.484 316.628,188.769 310.785,188.769L296.312,188.769Z" style="fill:rgb(86,77,160);stroke:black;stroke-width:0.86px;"/>
    </g>
    <g transform="matrix(0.490489,0,0,0.781337,-50.3485,-172.405)">
        <path d="M1284.05,581.904L1284.05,407.105L1366.29,407.105C1390.89,407.105 1412.69,410.546 1431.69,417.429C1450.81,424.313 1465.6,434.077 1476.06,446.723C1486.51,459.368 1491.74,473.855 1491.74,490.182L1491.74,498.946C1491.74,515.514 1486.45,530.08 1475.87,542.646C1465.41,555.212 1450.43,564.896 1430.92,571.699C1411.55,578.502 1389.3,581.904 1364.18,581.904L1284.05,581.904ZM1332.43,431.596L1332.43,557.653L1363.99,557.653C1389.36,557.653 1408.8,552.691 1422.32,542.766C1435.96,532.762 1442.91,518.435 1443.16,499.787L1443.16,490.062C1443.16,471.094 1436.6,456.607 1423.47,446.603C1410.33,436.598 1391.27,431.596 1366.29,431.596L1332.43,431.596ZM1526.74,515.754C1526.74,503.028 1530.75,491.583 1538.79,481.418C1546.82,471.174 1558.1,463.33 1572.64,457.888C1587.17,452.365 1603.87,449.604 1622.74,449.604C1650.66,449.604 1673.29,455.246 1690.63,466.532C1708.1,477.817 1717.54,492.783 1718.94,511.432L1719.13,518.275C1719.13,531.081 1715.18,542.526 1707.27,552.611C1699.5,562.695 1688.28,570.499 1673.61,576.021C1659.08,581.544 1642.25,584.305 1623.12,584.305C1593.93,584.305 1570.53,578.222 1552.94,566.057C1535.47,553.811 1526.74,537.524 1526.74,517.195L1526.74,515.754ZM1573.21,518.275C1573.21,531.641 1577.61,542.126 1586.41,549.729C1595.2,557.253 1607.44,561.014 1623.12,561.014C1638.81,561.014 1650.98,557.173 1659.65,549.489C1668.45,541.806 1672.85,530.561 1672.85,515.754C1672.85,502.628 1668.32,492.223 1659.27,484.54C1650.35,476.856 1638.17,473.015 1622.74,473.015C1607.57,473.015 1595.52,476.816 1586.6,484.42C1577.67,491.943 1573.21,503.228 1573.21,518.275ZM1816.66,420.431L1816.66,452.005L1853.19,452.005L1853.19,473.615L1816.66,473.615L1816.66,546.128C1816.66,551.09 1818.19,554.691 1821.25,556.932C1824.44,559.093 1830.05,560.174 1838.08,560.174C1843.44,560.174 1848.86,559.774 1854.34,558.973L1854.34,581.544C1843.76,583.384 1833.56,584.305 1823.74,584.305C1788.04,584.305 1770.19,571.939 1770.19,547.208L1770.19,473.615L1736.15,473.615L1736.15,452.005L1770.19,452.005L1770.19,420.431L1816.66,420.431ZM1961.63,544.927L2005.42,452.005L2053.42,452.005L1981.71,581.904L1941.35,581.904L1869.06,452.005L1917.26,452.005L1961.63,544.927ZM2171.04,584.305C2141.59,584.305 2117.68,578.502 2099.32,566.897C2081.09,555.212 2071.97,539.685 2071.97,520.316L2071.97,516.714C2071.97,503.748 2075.93,492.183 2083.83,482.019C2091.86,471.774 2103.08,463.81 2117.49,458.128C2131.9,452.445 2147.96,449.604 2165.68,449.604C2193.86,449.604 2215.6,455.246 2230.9,466.532C2246.32,477.817 2254.04,493.784 2254.04,514.433L2254.04,526.199L2118.83,526.199C2120.23,536.923 2125.9,545.407 2135.85,551.65C2145.92,557.893 2158.54,561.014 2173.72,561.014C2195.01,561.014 2212.35,555.612 2225.73,544.807L2250.79,559.814C2242.5,567.577 2231.41,573.62 2217.51,577.942C2203.74,582.184 2188.25,584.305 2171.04,584.305ZM2165.49,473.015C2152.74,473.015 2142.41,475.816 2134.51,481.418C2126.73,487.021 2121.76,494.824 2119.59,504.829L2208.14,504.829L2208.14,502.668C2207.12,492.904 2202.97,485.54 2195.71,480.578C2188.44,475.536 2178.37,473.015 2165.49,473.015ZM2398.43,478.657C2392.31,478.017 2385.99,477.697 2379.49,477.697C2358.2,477.697 2343.86,482.819 2336.46,493.064L2336.46,581.904L2289.99,581.904L2289.99,452.005L2334.36,452.005L2335.51,466.532C2346.73,455.246 2362.28,449.604 2382.17,449.604C2388.8,449.604 2394.28,450.164 2398.62,451.285L2398.43,478.657Z" style="fill:rgb(35,31,32);"/>
    </g>
    <g transform="matrix(0.490489,0,0,0.490489,9.99561,12.7307)">
        <path d="M1184.95,211.977C1187.91,211.977 1190.37,211.115 1192.32,209.389C1194.27,207.664 1195.32,205.532 1195.44,202.993L1206.63,202.993C1206.5,206.281 1205.47,209.357 1203.55,212.221C1201.63,215.053 1199.03,217.299 1195.74,218.96C1192.45,220.62 1188.9,221.45 1185.09,221.45C1177.7,221.45 1171.85,219.057 1167.52,214.272C1163.19,209.487 1161.02,202.879 1161.02,194.448L1161.02,193.227C1161.02,185.187 1163.17,178.758 1167.47,173.94C1171.76,169.09 1177.62,166.665 1185.05,166.665C1191.33,166.665 1196.44,168.504 1200.38,172.182C1204.35,175.828 1206.43,180.63 1206.63,186.587L1195.44,186.587C1195.32,183.559 1194.27,181.069 1192.32,179.116C1190.4,177.163 1187.94,176.186 1184.95,176.186C1181.11,176.186 1178.14,177.586 1176.06,180.385C1173.98,183.152 1172.92,187.368 1172.89,193.032L1172.89,194.936C1172.89,200.665 1173.91,204.946 1175.96,207.778C1178.05,210.577 1181.04,211.977 1184.95,211.977ZM1245.2,206.118C1245.2,204.002 1244.32,202.391 1242.56,201.284C1240.84,200.177 1237.96,199.201 1233.92,198.354C1229.88,197.508 1226.52,196.434 1223.81,195.132C1217.89,192.267 1214.93,188.117 1214.93,182.68C1214.93,178.123 1216.85,174.314 1220.69,171.255C1224.53,168.195 1229.41,166.665 1235.34,166.665C1241.65,166.665 1246.75,168.227 1250.62,171.352C1254.53,174.477 1256.48,178.53 1256.48,183.51L1244.62,183.51C1244.62,181.232 1243.77,179.344 1242.08,177.846C1240.38,176.316 1238.14,175.551 1235.34,175.551C1232.73,175.551 1230.6,176.154 1228.94,177.358C1227.31,178.563 1226.5,180.174 1226.5,182.192C1226.5,184.015 1227.27,185.431 1228.8,186.44C1230.33,187.449 1233.42,188.475 1238.07,189.516C1242.73,190.525 1246.37,191.746 1249.01,193.178C1251.68,194.578 1253.65,196.271 1254.92,198.257C1256.22,200.242 1256.87,202.651 1256.87,205.483C1256.87,210.236 1254.9,214.093 1250.96,217.055C1247.02,219.985 1241.87,221.45 1235.48,221.45C1231.15,221.45 1227.3,220.669 1223.91,219.106C1220.53,217.544 1217.89,215.395 1216,212.661C1214.11,209.926 1213.17,206.98 1213.17,203.823L1224.69,203.823C1224.86,206.622 1225.91,208.787 1227.87,210.317C1229.82,211.814 1232.41,212.563 1235.63,212.563C1238.76,212.563 1241.13,211.977 1242.76,210.805C1244.39,209.601 1245.2,208.038 1245.2,206.118ZM1313.46,194.594C1313.46,202.765 1311.61,209.292 1307.9,214.174C1304.19,219.025 1299.2,221.45 1292.95,221.45C1287.16,221.45 1282.52,219.546 1279.04,215.737L1279.04,240.786L1267.17,240.786L1267.17,167.641L1278.11,167.641L1278.6,173.012C1282.08,168.781 1286.82,166.665 1292.81,166.665C1299.25,166.665 1304.3,169.074 1307.94,173.891C1311.62,178.676 1313.46,185.333 1313.46,193.862L1313.46,194.594ZM1301.65,193.569C1301.65,188.296 1300.59,184.113 1298.47,181.02C1296.39,177.928 1293.39,176.382 1289.49,176.382C1284.64,176.382 1281.15,178.383 1279.04,182.387L1279.04,205.825C1281.19,209.926 1284.7,211.977 1289.59,211.977C1293.36,211.977 1296.31,210.464 1298.42,207.436C1300.57,204.376 1301.65,199.754 1301.65,193.569ZM1351.16,178.481C1349.6,178.221 1347.98,178.091 1346.32,178.091C1340.89,178.091 1337.23,180.174 1335.34,184.341L1335.34,220.473L1323.47,220.473L1323.47,167.641L1334.8,167.641L1335.09,173.549C1337.96,168.96 1341.93,166.665 1347.01,166.665C1348.7,166.665 1350.1,166.893 1351.21,167.348L1351.16,178.481ZM1354.67,193.569C1354.67,188.393 1355.7,183.738 1357.75,179.604C1359.8,175.438 1362.68,172.247 1366.39,170.034C1370.1,167.788 1374.37,166.665 1379.19,166.665C1386.31,166.665 1392.09,168.96 1396.52,173.549C1400.98,178.139 1403.39,184.227 1403.75,191.811L1403.8,194.594C1403.8,199.803 1402.79,204.458 1400.77,208.559C1398.78,212.661 1395.92,215.835 1392.17,218.081C1388.46,220.327 1384.17,221.45 1379.28,221.45C1371.83,221.45 1365.86,218.976 1361.36,214.028C1356.9,209.048 1354.67,202.423 1354.67,194.155L1354.67,193.569ZM1366.54,194.594C1366.54,200.031 1367.66,204.295 1369.91,207.387C1372.15,210.447 1375.28,211.977 1379.28,211.977C1383.29,211.977 1386.4,210.415 1388.61,207.29C1390.86,204.165 1391.98,199.591 1391.98,193.569C1391.98,188.23 1390.82,183.999 1388.51,180.874C1386.23,177.749 1383.12,176.186 1379.19,176.186C1375.31,176.186 1372.24,177.732 1369.96,180.825C1367.68,183.885 1366.54,188.475 1366.54,194.594ZM1426.21,167.641L1426.21,225.161C1426.21,230.564 1424.86,234.682 1422.15,237.514C1419.49,240.379 1415.56,241.811 1410.39,241.811C1408.21,241.811 1406.11,241.535 1404.09,240.981L1404.09,231.606C1405.33,231.899 1406.73,232.046 1408.29,232.046C1412.23,232.046 1414.24,229.897 1414.34,225.6L1414.34,167.641L1426.21,167.641ZM1413.32,153.921C1413.32,152.098 1413.89,150.584 1415.03,149.38C1416.2,148.175 1417.86,147.573 1420.01,147.573C1422.15,147.573 1423.81,148.175 1424.99,149.38C1426.16,150.584 1426.74,152.098 1426.74,153.921C1426.74,155.711 1426.16,157.208 1424.99,158.413C1423.81,159.585 1422.15,160.171 1420.01,160.171C1417.86,160.171 1416.2,159.585 1415.03,158.413C1413.89,157.208 1413.32,155.711 1413.32,153.921ZM1461.9,195.034L1436.27,195.034L1436.27,185.464L1461.9,185.464L1461.9,195.034ZM1490.32,205.434L1501.5,167.641L1513.76,167.641L1495.44,220.473L1485.14,220.473L1466.69,167.641L1478.99,167.641L1490.32,205.434ZM1543.79,221.45C1536.27,221.45 1530.16,219.09 1525.48,214.37C1520.82,209.617 1518.49,203.302 1518.49,195.424L1518.49,193.96C1518.49,188.686 1519.5,183.982 1521.52,179.848C1523.57,175.682 1526.43,172.443 1530.11,170.132C1533.79,167.82 1537.89,166.665 1542.42,166.665C1549.61,166.665 1555.16,168.96 1559.07,173.549C1563.01,178.139 1564.98,184.633 1564.98,193.032L1564.98,197.817L1530.45,197.817C1530.81,202.179 1532.26,205.63 1534.8,208.169C1537.37,210.708 1540.6,211.977 1544.47,211.977C1549.9,211.977 1554.33,209.78 1557.75,205.385L1564.15,211.489C1562.03,214.646 1559.2,217.104 1555.65,218.862C1552.13,220.587 1548.18,221.45 1543.79,221.45ZM1542.37,176.186C1539.11,176.186 1536.48,177.326 1534.46,179.604C1532.47,181.883 1531.2,185.057 1530.65,189.126L1553.26,189.126L1553.26,188.247C1553,184.275 1551.94,181.281 1550.08,179.262C1548.23,177.212 1545.66,176.186 1542.37,176.186ZM1601.84,178.481C1600.28,178.221 1598.67,178.091 1597.01,178.091C1591.57,178.091 1587.91,180.174 1586.02,184.341L1586.02,220.473L1574.16,220.473L1574.16,167.641L1585.48,167.641L1585.78,173.549C1588.64,168.96 1592.61,166.665 1597.69,166.665C1599.38,166.665 1600.78,166.893 1601.89,167.348L1601.84,178.481ZM1638.95,206.118C1638.95,204.002 1638.07,202.391 1636.31,201.284C1634.59,200.177 1631.71,199.201 1627.67,198.354C1623.63,197.508 1620.27,196.434 1617.56,195.132C1611.64,192.267 1608.68,188.117 1608.68,182.68C1608.68,178.123 1610.6,174.314 1614.44,171.255C1618.28,168.195 1623.16,166.665 1629.09,166.665C1635.4,166.665 1640.5,168.227 1644.37,171.352C1648.28,174.477 1650.23,178.53 1650.23,183.51L1638.37,183.51C1638.37,181.232 1637.52,179.344 1635.83,177.846C1634.13,176.316 1631.89,175.551 1629.09,175.551C1626.48,175.551 1624.35,176.154 1622.69,177.358C1621.06,178.563 1620.25,180.174 1620.25,182.192C1620.25,184.015 1621.02,185.431 1622.55,186.44C1624.08,187.449 1627.17,188.475 1631.82,189.516C1636.48,190.525 1640.12,191.746 1642.76,193.178C1645.43,194.578 1647.4,196.271 1648.67,198.257C1649.97,200.242 1650.62,202.651 1650.62,205.483C1650.62,210.236 1648.65,214.093 1644.71,217.055C1640.77,219.985 1635.62,221.45 1629.23,221.45C1624.9,221.45 1621.05,220.669 1617.66,219.106C1614.28,217.544 1611.64,215.395 1609.75,212.661C1607.86,209.926 1606.92,206.98 1606.92,203.823L1618.44,203.823C1618.61,206.622 1619.66,208.787 1621.62,210.317C1623.57,211.814 1626.16,212.563 1629.38,212.563C1632.51,212.563 1634.88,211.977 1636.51,210.805C1638.14,209.601 1638.95,208.038 1638.95,206.118ZM1673.57,220.473L1661.7,220.473L1661.7,167.641L1673.57,167.641L1673.57,220.473ZM1660.97,153.921C1660.97,152.098 1661.54,150.584 1662.68,149.38C1663.85,148.175 1665.51,147.573 1667.66,147.573C1669.81,147.573 1671.47,148.175 1672.64,149.38C1673.81,150.584 1674.4,152.098 1674.4,153.921C1674.4,155.711 1673.81,157.208 1672.64,158.413C1671.47,159.585 1669.81,160.171 1667.66,160.171C1665.51,160.171 1663.85,159.585 1662.68,158.413C1661.54,157.208 1660.97,155.711 1660.97,153.921ZM1684.26,193.569C1684.26,188.393 1685.29,183.738 1687.34,179.604C1689.39,175.438 1692.27,172.247 1695.98,170.034C1699.69,167.788 1703.96,166.665 1708.78,166.665C1715.9,166.665 1721.68,168.96 1726.11,173.549C1730.57,178.139 1732.98,184.227 1733.34,191.811L1733.38,194.594C1733.38,199.803 1732.38,204.458 1730.36,208.559C1728.37,212.661 1725.51,215.835 1721.76,218.081C1718.05,220.327 1713.76,221.45 1708.87,221.45C1701.42,221.45 1695.44,218.976 1690.95,214.028C1686.49,209.048 1684.26,202.423 1684.26,194.155L1684.26,193.569ZM1696.13,194.594C1696.13,200.031 1697.25,204.295 1699.5,207.387C1701.74,210.447 1704.87,211.977 1708.87,211.977C1712.88,211.977 1715.99,210.415 1718.2,207.29C1720.44,204.165 1721.57,199.591 1721.57,193.569C1721.57,188.23 1720.41,183.999 1718.1,180.874C1715.82,177.749 1712.71,176.186 1708.78,176.186C1704.9,176.186 1701.83,177.732 1699.55,180.825C1697.27,183.885 1696.13,188.475 1696.13,194.594ZM1754.43,167.641L1754.77,173.745C1758.68,169.025 1763.81,166.665 1770.15,166.665C1781.15,166.665 1786.75,172.964 1786.95,185.561L1786.95,220.473L1775.08,220.473L1775.08,186.245C1775.08,182.892 1774.35,180.418 1772.89,178.823C1771.45,177.195 1769.09,176.382 1765.81,176.382C1761.02,176.382 1757.46,178.546 1755.11,182.876L1755.11,220.473L1743.25,220.473L1743.25,167.641L1754.43,167.641Z" style="fill:rgb(35,31,32);"/>
    </g>
    <g id="VB.NET" transform="matrix(0.434331,0,0,0.434331,521.801,193.429)">
        <g transform="matrix(0.0738173,0,0,0.0738173,530.62,259.434)">
            <circle cx="1275" cy="1201" r="1105.96" style="fill:rgb(0,78,140);"/>
        </g>
        <g transform="matrix(0.0738173,0,0,0.0738173,530.62,259.434)">
            <path d="M508.433,406.09C273.061,615.833 138.256,916.519 138.256,1231.78C138.256,1838.5 637.505,2337.74 1244.22,2337.74C1559.48,2337.74 1860.17,2202.94 2069.91,1967.57L508.433,406.09Z" style="fill:white;fill-opacity:0.1;fill-rule:nonzero;"/>
        </g>
        <g transform="matrix(0.0738173,0,0,0.0738173,530.62,259.434)">
            <path d="M1319.59,765.527L998.511,1636.47L884.805,1636.47L568.915,765.527L682.621,765.527L924.55,1456.75C932.893,1481.82 938.796,1507.63 942.176,1533.82L944.596,1533.82C948.217,1506.94 954.706,1480.53 963.95,1455.02L1210.03,763.799L1319.59,765.527ZM1445.04,1636.47L1445.04,765.527L1692.85,765.527C1757.18,762.084 1820.69,781.699 1871.87,820.825C1915.25,855.846 1939.82,909.221 1938.23,964.945C1938.91,1011.13 1924.46,1056.29 1897.1,1093.51C1869.5,1130.58 1830.73,1157.84 1786.51,1171.28L1786.51,1173.69C1839.98,1178.01 1890.11,1201.6 1927.52,1240.05C1963.68,1279.91 1982.69,1332.48 1980.4,1386.25C1982.69,1455.64 1953.13,1522.4 1900.21,1567.35C1843.67,1614.52 1771.62,1639.15 1698.03,1636.47L1445.04,1636.47ZM1548.73,857.46L1548.73,1138.79L1652.41,1138.79C1699.61,1141.01 1746.08,1126.29 1783.4,1097.32C1816.15,1068.78 1833.9,1026.63 1831.44,983.263C1831.44,898.703 1775.79,856.423 1664.51,856.423L1548.73,857.46ZM1548.73,1230.38L1548.73,1543.85L1686.97,1543.85C1736.65,1546.73 1785.74,1531.63 1825.22,1501.34C1858.57,1472.1 1876.79,1429.16 1874.64,1384.87C1874.64,1282.1 1804.6,1230.72 1664.51,1230.72L1548.73,1230.38Z" style="fill:white;fill-rule:nonzero;"/>
        </g>
    </g>
    <g id="FSharp" transform="matrix(1.37184,0,0,1.37184,-302.701,-101.135)">
        <g transform="matrix(0.0220893,0,0,0.0220893,703.222,299.152)">
            <path d="M0.025,1186.42L1186.45,0L1186.45,593.211L593.236,1186.42L1186.45,1779.62L1186.45,2372.83L0.025,1186.42Z" style="fill:rgb(55,139,186);fill-rule:nonzero;"/>
        </g>
        <g transform="matrix(0.0220893,0,0,0.0220893,703.222,299.152)">
            <path d="M762.724,1186.42L1186.45,762.7L1186.45,1610.14L762.724,1186.42Z" style="fill:rgb(55,139,186);fill-rule:nonzero;"/>
        </g>
        <g transform="matrix(0.0220893,0,0,0.0220893,703.222,299.152)">
            <path d="M2499.97,1186.42L1271.19,0L1271.19,593.211L1864.39,1186.42L1271.18,1779.62L1271.18,2372.83L2499.97,1186.42Z" style="fill:rgb(48,185,219);fill-rule:nonzero;"/>
        </g>
    </g>
    <g id="CSharp" transform="matrix(0.62513,0,0,0.62513,113.007,130.491)">
        <g transform="matrix(0.0464662,0,0,0.0464662,745.128,285.386)">
            <path d="M2212.12,740.069C2212.11,698.447 2203.2,661.667 2185.2,630.11C2167.52,599.061 2141.04,573.045 2105.52,552.475C1812.31,383.409 1518.81,214.86 1225.7,45.621C1146.68,-0 1070.06,1.672 991.622,47.948C874.916,116.767 290.607,451.53 116.491,552.38C44.785,593.9 9.893,657.428 9.876,739.992C9.764,1079.99 9.876,1420 9.764,1760C9.764,1800.71 18.303,1836.78 35.513,1867.87C53.204,1899.84 80.056,1926.58 116.396,1947.61C290.521,2048.46 874.907,2383.2 991.588,2452.04C1070.06,2498.35 1146.68,2500 1225.73,2454.37C1518.85,2285.12 1812.36,2116.57 2105.61,1947.51C2141.95,1926.48 2168.8,1899.73 2186.5,1867.78C2203.68,1836.69 2212.24,1800.62 2212.24,1759.9C2212.24,1759.9 2212.24,1080.08 2212.12,740.069" style="fill:rgb(161,121,220);fill-rule:nonzero;"/>
        </g>
        <g transform="matrix(0.0464662,0,0,0.0464662,745.128,285.386)">
            <path d="M1114.37,1246.68L35.513,1867.87C53.204,1899.84 80.056,1926.58 116.396,1947.61C290.521,2048.46 874.907,2383.2 991.588,2452.04C1070.06,2498.35 1146.68,2500 1225.73,2454.37C1518.85,2285.12 1812.36,2116.57 2105.61,1947.51C2141.95,1926.48 2168.8,1899.73 2186.5,1867.78L1114.37,1246.68Z" style="fill:rgb(40,0,104);fill-rule:nonzero;"/>
        </g>
        <g transform="matrix(0.0464662,0,0,0.0464662,745.128,285.386)">
            <path d="M2212.12,740.069C2212.11,698.447 2203.2,661.667 2185.2,630.11L1114.37,1246.69L2186.5,1867.78C2203.68,1836.69 2212.22,1800.62 2212.24,1759.9C2212.24,1759.9 2212.24,1080.08 2212.12,740.069" style="fill:rgb(57,0,145);fill-rule:nonzero;"/>
        </g>
        <g transform="matrix(0.0464662,0,0,0.0464662,745.128,285.386)">
            <path d="M1749.56,1014.47L1749.56,1130.58L1865.68,1130.58L1865.68,1014.47L1923.73,1014.47L1923.73,1130.58L2039.84,1130.58L2039.84,1188.63L1923.73,1188.63L1923.73,1304.74L2039.84,1304.74L2039.84,1362.79L1923.73,1362.79L1923.73,1478.91L1865.68,1478.91L1865.68,1362.79L1749.56,1362.79L1749.56,1478.91L1691.51,1478.91L1691.51,1362.79L1575.4,1362.79L1575.4,1304.74L1691.51,1304.74L1691.51,1188.63L1575.4,1188.63L1575.4,1130.58L1691.51,1130.58L1691.51,1014.47L1749.56,1014.47ZM1865.68,1188.63L1749.56,1188.63L1749.56,1304.74L1865.68,1304.74L1865.68,1188.63Z" style="fill:white;fill-rule:nonzero;"/>
        </g>
        <g transform="matrix(0.0464662,0,0,0.0464662,745.128,285.386)">
            <path d="M1116.74,431.339C1419.59,431.339 1684,595.813 1825.63,840.291L1824.25,837.938L1467.92,1043.1C1397.72,924.242 1269.03,844.022 1121.38,842.367L1116.73,842.341C891.599,842.341 709.081,1024.86 709.081,1249.99C709.007,1320.94 727.548,1390.69 762.845,1452.24C833.112,1574.91 965.209,1657.65 1116.74,1657.65C1269.21,1657.65 1402.06,1573.86 1471.96,1449.88L1470.26,1452.86L1826.05,1658.97C1685.98,1901.38 1425.18,2065.34 1125.86,2068.61L1116.74,2068.66C812.93,2068.66 547.77,1903.17 406.495,1657.4C337.529,1537.42 298.07,1398.32 298.07,1249.99C298.07,797.867 664.589,431.331 1116.73,431.331L1116.74,431.339Z" style="fill:white;fill-rule:nonzero;"/>
        </g>
    </g>
</svg>
