<?xml version="1.0" encoding="UTF-8" standalone="no"?>
<!DOCTYPE svg PUBLIC "-//W3C//DTD SVG 1.1//EN" "http://www.w3.org/Graphics/SVG/1.1/DTD/svg11.dtd">
<svg width="100%" height="100%" viewBox="0 0 1080 1080" version="1.1" xmlns="http://www.w3.org/2000/svg" xmlns:xlink="http://www.w3.org/1999/xlink" xml:space="preserve" xmlns:serif="http://www.serif.com/" style="fill-rule:evenodd;clip-rule:evenodd;stroke-linejoin:round;stroke-miterlimit:2;">
    <g transform="matrix(2.36842,0,0,2.36842,35.2883,-7.49961)">
        <path d="M81.274,291.333C78.05,291.333 75.309,290.259 73.052,288.11C70.795,285.906 69.667,283.289 69.667,280.259C69.667,277.173 70.795,274.529 73.052,272.325C75.309,270.121 78.05,269.019 81.274,269.019C84.552,269.019 87.319,270.121 89.576,272.325C91.887,274.529 93.042,277.173 93.042,280.259C93.042,283.289 91.887,285.906 89.576,288.11C87.319,290.259 84.552,291.333 81.274,291.333ZM264.317,289.515L199.429,289.515L199.429,171L261.738,171L261.738,187.695L218.614,187.695L218.614,221.249L258.353,221.249L258.353,237.861L218.614,237.861L218.614,272.903L264.317,272.903L264.317,289.515ZM131.668,289.515L95.406,171L115.909,171L131.427,228.167L140.995,262.097L141.638,262.097L151.287,228.167L166.644,171L187.227,171L151.206,289.515L131.668,289.515ZM296.312,244.65L296.312,289.515L277.096,289.515L277.096,171L313.84,171C320.487,171 326.544,172.394 332.011,175.181C337.479,177.915 341.821,181.908 345.037,187.161C348.307,192.361 349.941,198.659 349.941,206.056C349.941,213.239 348.28,219.751 344.956,225.594C341.633,231.383 336.943,236.02 330.886,239.504C330.323,239.823 329.751,240.127 329.169,240.416L356.535,289.515L334.745,289.515L310.609,244.638C310.215,244.646 309.818,244.65 309.418,244.65L296.312,244.65ZM296.312,188.769L296.312,228.087L311.589,228.087C315.287,228.087 318.584,227.283 321.479,225.674C324.373,224.013 326.651,221.681 328.313,218.679C329.975,215.678 330.805,212.167 330.805,208.146C330.805,202.089 328.929,197.346 325.177,193.915C321.425,190.484 316.628,188.769 310.785,188.769L296.312,188.769Z" style="fill:rgb(86,77,160);stroke:black;stroke-width:0.42px;"/>
    </g>
</svg>
